Coordinates
version=1
nRows=11
nColumns=36
inDegrees=yes

Units are S.I. units (second, meters, Newtons, ...)
If the header above contains a line with 'inDegrees', this indicates whether rotational values are in degrees (yes) or radians (no).

endheader
time	pelvis_tilt	pelvis_list	pelvis_rotation	pelvis_tx	pelvis_ty	pelvis_tz	hip_flexion_r	hip_adduction_r	hip_rotation_r	knee_angle_r	knee_angle_r_beta	ankle_angle_r	subtalar_angle_r	mtp_angle_r	hip_flexion_l	hip_adduction_l	hip_rotation_l	knee_angle_l	knee_angle_l_beta	ankle_angle_l	subtalar_angle_l	mtp_angle_l	lumbar_extension	lumbar_bending	lumbar_rotation	arm_flex_r	arm_add_r	arm_rot_r	elbow_flex_r	pro_sup_r	arm_flex_l	arm_add_l	arm_rot_l	elbow_flex_l	pro_sup_l
      3.41666670	     -7.75309441	     -0.28562690	      1.05725517	      0.25879411	      1.26251265	      0.00306874	      4.04355510	     -4.12602927	     -6.51135635	     34.20769490	      0.59703691	    -16.55813523	     -6.72220933	     -7.49999987	      1.27816138	     -0.21515266	     -4.51727134	     29.72757004	      0.51884398	    -18.94811396	     -6.68995601	     -7.49999987	     -2.48726068	     -2.13034872	     -8.09673872	      4.41095379	    -14.42735527	     30.11461886	    103.52330362	     95.04475621	    -18.51188138	    -12.37833922	     18.41476269	    132.61566795	    100.10020207
      3.43333330	     -5.42318027	     -0.33776871	      1.13503315	      0.27585998	      1.27987599	      0.00322535	      4.69480555	     -3.57143307	     -4.82734795	     40.23398058	      0.70221543	    -17.79591960	     -8.89359449	     -7.49999987	      1.67639051	      0.11046425	     -1.99012943	     35.33193731	      0.61665864	    -21.08197543	     -7.17257809	     -7.49999987	     -5.12727929	     -2.22905475	     -7.39843948	      3.47089094	    -15.73129427	     30.48843048	    104.44225858	     93.09817975	    -20.35434407	    -12.28822834	     18.00055527	    131.20729852	     97.82084573
      3.45000000	     -3.46227748	     -0.53483390	      0.96851973	      0.28804848	      1.29148954	      0.00330274	      7.09595205	     -2.56342770	     -2.66618738	     47.82555103	      0.83471333	    -16.08517187	     -9.79089230	     -7.49999987	      3.86462830	      0.28291859	     -0.24367694	     43.19104458	      0.75382594	    -20.99045292	     -7.55440080	     -7.49999987	     -8.33555200	     -2.11483048	     -6.86047692	      2.78570420	    -17.05692638	     31.21557334	    105.75133891	     91.60347009	    -21.95413494	    -11.62384298	     15.96385170	    129.30643269	     96.17412490
      3.46666670	     -2.19342750	     -0.35061042	      0.71438791	      0.30011760	      1.28694466	      0.00192707	     10.98206032	     -2.08097678	     -0.69251894	     57.15063099	      0.99746668	    -13.02462782	     -9.53798307	     -7.49999987	      7.53949535	      0.77431241	      0.28724455	     52.59315174	      0.91792366	    -19.41227571	     -6.76580866	     -7.49999987	    -10.79449226	     -2.52921497	     -8.18736126	      4.36411121	    -17.84462016	     34.01635126	    104.52151480	     94.70681106	    -23.09249800	    -10.30997361	     12.69708135	    127.66994003	     99.90680046
      3.48333330	     -1.50342365	     -0.37124722	      0.51526913	      0.31587525	      1.29196980	      0.00029854	     15.02627462	     -1.48684713	      0.29243622	     64.99124312	      1.13431118	     -9.78868676	     -8.29648522	     -7.49999987	     11.11542138	      0.67517754	      0.28052051	     60.11171290	      1.04914731	    -17.95396792	     -5.62717343	     -7.49999987	    -12.58126991	     -2.81137271	     -7.15999396	      4.19362928	    -17.97987357	     34.27596609	    103.09807882	     92.27960003	    -22.66075909	     -8.58085226	     12.12075348	    124.00187563	     96.89023796
      3.50000000	     -1.36310280	     -0.43653264	      0.78887804	      0.32964723	      1.29149782	     -0.00004154	     19.39827365	     -1.08658315	      0.46264302	     71.64495167	      1.25044030	     -6.31688341	     -7.67179589	     -7.49999987	     15.13005680	      0.15931593	      0.36634410	     66.18371235	      1.15512369	    -16.31803113	     -5.34126688	     -7.49999987	    -13.87957523	     -2.92309605	     -7.15933987	      3.91065482	    -17.97321726	     34.36851507	    100.80452350	     90.62125125	    -21.25389441	     -6.21901292	     11.49747026	    119.69650347	     94.69360582
      3.51666670	     -1.60704981	     -0.73016388	      0.80858721	      0.34313196	      1.28489003	     -0.00093920	     24.01643095	     -0.53611230	      0.65271544	     77.17220372	      1.34690905	     -4.46020505	     -6.76520630	     -7.49999987	     19.45929967	     -0.68949397	      0.58177167	     71.80521249	      1.25323738	    -14.51825148	     -5.94862310	     -7.49999987	    -14.72366607	     -2.88549887	     -6.96936265	      3.49111647	    -17.70723830	     33.99825068	     98.08631722	     89.56585587	    -20.16745949	     -4.02607034	     10.18051865	    116.46074338	     93.12708333
      3.53333330	     -2.52356946	     -1.06969248	      0.59496044	      0.35476911	      1.26970021	     -0.00047910	     29.51619532	      0.13590588	      1.11719995	     82.00922780	      1.43133104	     -2.09556983	     -5.66193929	     -7.49999987	     24.80959900	     -1.62744418	      0.85784116	     76.64737105	      1.33774899	    -11.85871723	     -6.80304974	     -7.49999987	    -14.93930307	     -2.73259847	     -6.62055513	      3.05173990	    -17.48761953	     33.15943928	     95.01928562	     88.99790026	    -19.35767680	     -2.47905741	      8.44275855	    114.78585137	     92.09384934
      3.55000000	     -3.42486547	     -1.41731778	      0.37133634	      0.36530638	      1.26347289	     -0.00217520	     34.49067473	      0.59468410	      1.10727475	     84.45874252	      1.47408314	     -3.57808374	     -6.00944654	     -7.49999987	     29.37610858	     -2.30754431	      1.17397008	     79.15164056	      1.38145674	     -9.14751938	     -7.43568135	     -7.49999987	    -15.50255789	     -2.63084323	     -6.19114286	      2.32764323	    -17.41540344	     31.63878027	     91.23309896	     88.59734131	    -18.46566232	     -1.56137419	      6.62317431	    114.07959651	     91.42798679
      3.56666670	     -4.51566363	     -1.29992366	      0.25251845	      0.37593559	      1.25110496	     -0.00440332	     39.20516180	      0.69132016	      1.01184518	     84.62911678	      1.47705673	     -4.61794164	     -6.74992129	     -7.49999987	     33.62610619	     -2.38047065	      1.16897979	     79.80813206	      1.39291467	     -8.00671893	     -8.67687015	     -7.49999987	    -16.16300664	     -2.74508009	     -6.01490663	      1.75819465	    -17.06853637	     29.61125915	     86.82551338	     88.54838976	    -17.52757124	     -1.47211880	      5.31179247	    114.27895812	     91.30077558
      3.58333330	     -5.06653254	     -1.25034966	      0.35179348	      0.39090260	      1.24511199	     -0.00438620	     41.35851697	      0.75325485	      0.37528806	     80.24916611	      1.40061217	     -6.93951144	     -7.85886046	     -7.49999987	     36.07012669	     -2.28877704	      0.81461736	     76.86581733	      1.34156159	     -8.19333908	     -7.85391284	     -7.49999987	    -17.44598238	     -2.77658176	     -5.82091093	      1.15836210	    -16.54373918	     27.37866089	     81.83028468	     88.04024455	    -17.24210061	     -1.51096869	      4.53990835	    115.35024202	     90.93910736
